<?xml version="1.0" encoding="UTF-8"?>
<svg xmlns="http://www.w3.org/2000/svg" xmlns:xlink="http://www.w3.org/1999/xlink" width="1900" height="1000">
  <defs>
    <style>
      .cls-1 {
        fill: #fbb03b;
      }

      .cls-1, .cls-2, .cls-3, .cls-4, .cls-5, .cls-6, .cls-7, .cls-8, .cls-9, .cls-10, .cls-11, .cls-12, .cls-13, .cls-14, .cls-15, .cls-16, .cls-17, .cls-18 {
        stroke-width: 0px;
      }

      .cls-2, .cls-19 {
        fill: #ccc;
      }

      .cls-20 {
        letter-spacing: -.03em;
      }

      .cls-21 {
        letter-spacing: 0em;
      }

      .cls-19, .cls-22, .cls-23, .cls-24 {
        font-size: 20px;
        fill: #058eb0;
      }

      .cls-19, .cls-26, .cls-23, .cls-27, .cls-28, .cls-29, .cls-30, .cls-31, .cls-32, .cls-33, .cls-34, .cls-35, .cls-36, .cls-37, .cls-38, .cls-25 {
        font-family: Gilroy-Bold, Gilroy;
        font-weight: 700;
      }

      .cls-3 {
        fill: #242424;
      }

    

      .cls-26, .cls-34, .cls-38 {
        font-size: 13.33px;
      }

      .cls-26, .cls-36 {
        fill: #f3b814;
      }

      .cls-4 {
        fill: #1e1e1e;
      }

      .cls-28 {
        font-size: 15px;
      }

      .cls-41 {
        letter-spacing: 0em;
      }

      .cls-5 {
        fill: #1c1c1c;
      }

      .cls-42 {
        letter-spacing: -.02em;
      }

      .cls-6 {
        fill: hsl(160, 70%, 50%);
      }

      .cls-39 {
        font-size: 27px;
        
      }

      .cls-39, .cls-43, .cls-24 {
        font-family: GlowSansSC-Normal-Regular-GBpc-EUC-H, 'Glow Sans SC';
      }

      .cls-29, .cls-44 {
        letter-spacing: -.02em;
      }

      .cls-23, .cls-45, .cls-46, .cls-47, .cls-48, .cls-40, .cls-49, .cls-131 {
        font-family: Gilroy-Regular, Gilroy;
      }

      .cls-7, .cls-31, .cls-38 {
        fill: #ff78cf;
      }

      .cls-50 {
        letter-spacing: -.02em;
      }

      .cls-30, .cls-9, .cls-34 {
        fill: #4d4d4d;
      }

      .cls-30, .cls-36 {
        font-size: 20px;
      }

      .cls-31 {
        font-size: 46.67px;
      }

      .cls-45 {
        letter-spacing: -.03em;
      }

      .cls-32 {
  
        font-size: 10px;
      }

      .cls-51 {
        letter-spacing: -.03em;
      }

      .cls-52 {
        letter-spacing: 0em;
      }

      .cls-53 {
        letter-spacing: -.02em;
      }

      .cls-8 {
        fill: none;
      }

      .cls-46 {
        letter-spacing: -.05em;
      }

      .cls-54 {
        letter-spacing: -.02em;
      }

      .cls-33 {
        font-size: 45px;
    
      }

      .cls-55 {
        letter-spacing: .01em;
      }

      .cls-56 {
        letter-spacing: -.03em;
      }

      .cls-57 {
        letter-spacing: 0em;
      }

      .cls-47 {
        letter-spacing: -.02em;
      }

      .cls-10 {
        fill: #ddd;
      }

      .cls-35 {
        font-size: 15px;
      }

      .cls-58 {
        font-family: GlowSansSC-Normal-Heavy-GBpc-EUC-H, 'Glow Sans SC';
      }

      .cls-59 {
        letter-spacing: 0em;
      }

      .cls-60 {
        clip-path: url(#clippath);
      }

      .cls-61 {
        letter-spacing: -.05em;
      }

      .cls-40, .cls-37 {
        font-size: 30px;
      }

      .cls-11 {
        fill: #272727;
      }

      .cls-62 {
        letter-spacing: 0em;
      }

      .cls-12 {
        fill: #e5eff0;
      }

      .cls-63 {
        letter-spacing: 0em;
      }

      .cls-13 {
        fill: #fff;
      }

      .cls-64 {
        letter-spacing: 0em;
      }

      .cls-65 {
        letter-spacing: -.02em;
      }

      .cls-14 {
        fill: #202020;
      }

      .cls-66 {
        letter-spacing: 0em;
      }

      .cls-15 {
        fill: #9feaf7;
      }

      .cls-16 {
        fill: #1b1b1b;
      }

      .cls-67 {
        letter-spacing: -.03em;
      }

      .cls-68 {
        letter-spacing: 0em;
      }

      .cls-69 {
        letter-spacing: -.03em;
      }

      .cls-70 {
        letter-spacing: -.02em;
      }

      .cls-17 {
        fill: #f3f8f9;
      }

      .cls-49 {
        letter-spacing: -.01em;
      }

      .cls-71 {
        letter-spacing: 0em;
      }

      .cls-18 {
        fill: #f1f4f3;
      }
      .cls-130{
         font-family: Torus-Regular, Torus;
      }
       .cls-112{
        font-family: Torus-Regular, Torus;
        font-size: 10px;
        font-weight: 600;
        fill: #000000;
        letter-spacing: .05em;
      }
      .cls-131{
       font-family:  Felix Titling, Gilroy;
      }
    </style>
  
    <clipPath id="avatarClip">
      <rect class="cls-10" id="avatarBorder" x="60" y="110" width="90" height="90" rx="10" ry="10"/>
    </clipPath>

    <clipPath id="clippath">
      <rect class="cls-8" x="1620" width="240" height="60"/>
    </clipPath>

    <clipPath id="bpclip">
       <rect width="415" height="100" rx="15" ry="15" x="25" y="580"/>
    </clipPath>
    <clipPath id="avatar-block-clip">
       <rect class="cls-18" width="980" height="270" rx="20" ry="20" y="80"/>
    </clipPath>
        <clipPath id="status-block-clip">
        <rect fill="#e5eff0" width="940" height="270" rx="20" ry="20" y="230" />
    </clipPath>

     <clipPath id="performance-block-clip">
         <rect class="cls-18" width="900" height="440" rx="20" ry="20" x="0" y="520"/>
    </clipPath>
     <clipPath id="header-block-clip">
        <rect fill="#c3eef9" width="1920" height="60"/>
    </clipPath>

    <filter id="blur">
      <feGaussianBlur in="SourceGraphic" stdDeviation="5"/>
    </filter>
      <filter id="bp-blur">
            <feGaussianBlur in="SourceGraphic" stdDeviation="2"/>
        </filter>
    
     <linearGradient id="opacityGraditent" x1="25" y1="580" x2="440" y2="580" gradientUnits="userSpaceOnUse">
            <stop offset="0" stop-color="#000" stop-opacity="0"/>
            <stop offset=".2" stop-color="#000" stop-opacity="0"/>
            <stop offset=".65" stop-color="#eee" stop-opacity="0.6"/>
            <stop offset=".8" stop-color="#ffffff" stop-opacity="1.0"/>
            <stop offset="1" stop-color="#ffffff" stop-opacity="1.0"/>
        </linearGradient>

  </defs>
  <g id="Background">
      <image
              xlink:href="assets/whitespace_0.png"
              x="0"
              y="60"
              width="1900"
              height="1000"
              preserveAspectRatio="xMidYMid slice"
              id="bg-0"/>

    <rect fill="#08afda" width="1920" height="62"/>
    <rect fill="#e6f2f4" width="1920" height="60"/>

    <rect fill="#f1f4f3" width="980" height="270" rx="20" ry="20" y="80"
    stroke-width="2" stroke-opacity="0.8" stroke="#92e8fc"/>
      <image
              xlink:href="assets/whitespace_0.png"
              x="0"
              y="60"
              width="1900"
              height="1000"
              id="bg-1"
              preserveAspectRatio="xMidYMid slice"
              filter="url(#blur)"
              clip-path="url(#avatar-block-clip)" opacity="0.3"/>

    <rect fill="#e5eff0" width="940" height="270" rx="20" ry="20" y="230" 
    stroke-width="2" stroke-opacity="0.8" stroke="#f1f3f5"/>
      <image
              xlink:href="assets/whitespace_0.png"
              x="0"
              y="60"
              width="1900"
              height="1000"
              id="bg-2"
              preserveAspectRatio="xMidYMid slice"
              filter="url(#blur)"
              clip-path="url(#status-block-clip)" opacity="0.2"/>
    

    <path fill="#058eb2" d="M1665,17.5c6.89,0,12.5,5.61,12.5,12.5s-5.61,12.5-12.5,12.5-12.5-5.61-12.5-12.5,5.61-12.5,12.5-12.5M1665,15c-8.28,0-15,6.72-15,15s6.72,15,15,15,15-6.72,15-15-6.72-15-15-15h0ZM1665,20c-5.52,0-10,4.48-10,10s4.48,10,10,10,10-4.48,10-10-4.48-10-10-10Z"/>
    <path fill="#4d4d4d" d="M1715,17.5c6.89,0,12.5,5.61,12.5,12.5s-5.61,12.5-12.5,12.5-12.5-5.61-12.5-12.5,5.61-12.5,12.5-12.5M1715,15c-8.28,0-15,6.72-15,15s6.72,15,15,15,15-6.72,15-15-6.72-15-15-15h0ZM1715,22.5c4.14,0,7.5,3.36,7.5,7.5s-3.36,7.5-7.5,7.5-7.5-3.36-7.5-7.5,3.36-7.5,7.5-7.5M1715,20c-5.52,0-10,4.48-10,10s4.48,10,10,10,10-4.48,10-10-4.48-10-10-10h0ZM1716.25,20.5h-2.5v19h2.5v-19Z"/>
    <path fill="#4d4d4d" d="M1765,17.5c6.89,0,12.5,5.61,12.5,12.5s-5.61,12.5-12.5,12.5-12.5-5.61-12.5-12.5,5.61-12.5,12.5-12.5M1765,15c-8.28,0-15,6.72-15,15s6.72,15,15,15,15-6.72,15-15-6.72-15-15-15h0ZM1766.25,25c0,1.38-1.12,2.5-2.5,2.5s-2.5-1.12-2.5-2.5,1.12-2.5,2.5-2.5,2.5,1.12,2.5,2.5ZM1763.75,32.5c-1.38,0-2.5,1.12-2.5,2.5s1.12,2.5,2.5,2.5,2.5-1.12,2.5-2.5-1.12-2.5-2.5-2.5ZM1768.75,27.5c-1.38,0-2.5,1.12-2.5,2.5s1.12,2.5,2.5,2.5,2.5-1.12,2.5-2.5-1.12-2.5-2.5-2.5Z"/>
    
    <path fill="#4d4d4d" d="M1815,17.5c6.89,0,12.5,5.61,12.5,12.5s-5.61,12.5-12.5,12.5-12.5-5.61-12.5-12.5,5.61-12.5,12.5-12.5M1815,15c-8.28,0-15,6.72-15,15s6.72,15,15,15,15-6.72,15-15-6.72-15-15-15h0ZM1816.25,40v-20c0-.69-.56-1.25-1.25-1.25s-1.25.56-1.25,1.25v20c0,.69.56,1.25,1.25,1.25s1.25-.56,1.25-1.25ZM1821.25,35v-10c0-.69-.56-1.25-1.25-1.25s-1.25.56-1.25,1.25v10c0,.69.56,1.25,1.25,1.25s1.25-.56,1.25-1.25ZM1811.25,35v-10c0-.69-.56-1.25-1.25-1.25s-1.25.56-1.25,1.25v10c0,.69.56,1.25,1.25,1.25s1.25-.56,1.25-1.25Z"/>
    <path fill="#058eb2" d="M1677.5,57.5h-25c-1.38,0-2.5-1.12-2.5-2.5s1.12-2.5,2.5-2.5h25c1.38,0,2.5,1.12,2.5,2.5s-1.12,2.5-2.5,2.5Z"/>
    <rect fill="hsl(193, 0%, 95%)" x="60" y="350" width="380" height="110" rx="5" ry="5" opacity="0.7"/>

  </g>
  <g id="Text">
    <path fill="#ddd" d="M907.59,260H62.41c-1.33,0-2.41-1.12-2.41-2.5h0c0-1.38,1.08-2.5,2.41-2.5h845.17c1.33,0,2.41,1.12,2.41,2.5h0c0,1.38-1.08,2.5-2.41,2.5Z"/>
    <rect fill="hsl(192, 95%, 36%)" x="60" y="255" width="10" height="5" rx="2.5" ry="2.5" id="levelProgressRect"/>
    <text class="cls-37" fill="hsl(192, 95%, 36%)" id="levelPercentage" transform="translate(110 297.5)">00%</text>
    <path class="cls-1" d="M80,310c-1.27,0-2.53-.33-3.66-.98l-13.14-7.59c-2.26-1.31-3.66-3.74-3.66-6.35v-15.17c0-2.61,1.4-5.04,3.66-6.35l13.14-7.59c2.26-1.3,5.07-1.3,7.33,0l13.14,7.59c2.26,1.31,3.66,3.74,3.66,6.35v15.17c0,2.61-1.4,5.04-3.66,6.35l-13.14,7.59c-1.13.65-2.4.98-3.66.98ZM80,267.93c-.76,0-1.52.2-2.2.59l-13.14,7.59c-1.36.78-2.2,2.24-2.2,3.81v15.17c0,1.57.84,3.03,2.2,3.81l13.14,7.59c1.36.78,3.04.78,4.4,0l13.14-7.59c1.36-.78,2.2-2.24,2.2-3.81v-15.17c0-1.57-.84-3.03-2.2-3.81l-13.14-7.59c-.68-.39-1.44-.59-2.2-.59Z"/>
    <text class="cls-35" fill="hsl(192, 95%, 36%)" id="level" text-anchor="middle" transform="translate(80 292.5)">100</text>
    <g id="detailedStats">
      <text class="cls-23" transform="translate(460 300)">Ranked Score</text>
      <text class="cls-23" text-anchor="end" id="rankedScore" transform="translate(905 300)">000,000,000,000</text>
   
      <text class="cls-23" transform="translate(460 332)">Accuracy</text>
      <text class="cls-23" id="accuracy" text-anchor="end" transform="translate(905 332)">100.00%</text>

      <text class="cls-23" transform="translate(460 364)">Play Count</text>
      <text class="cls-23" text-anchor="end" id="playCount" transform="translate(905 364)">00000</text>

      <text class="cls-23" transform="translate(460 396)">Total Score</text>
      <text class="cls-23" id="totalScore" text-anchor="end" transform="translate(905 396)">00,000,000,000,000</text>
  
      <text class="cls-23" transform="translate(460 428)">Total Hits</text>
      <text class="cls-23" id="totalHits" text-anchor="end" transform="translate(905 428)">00,000,000</text>

      <text class="cls-23" transform="translate(460 460)">Playtime</text>
      <text class="cls-23" id="playTime" text-anchor="end" transform="translate(905 460)">000.0h</text>
    </g>

    <g transform="translate(0,10)" id="bp-block">


      <rect fill="#f1f4f3" width="900" height="440" rx="20" ry="20" x="0" y="520"
            stroke-width="2" stroke-opacity="0.8" stroke="hsl(192, 76%, 85%)"/>

        <text class="cls-23"  transform="translate(30 555)">Best Performances</text>
        <image
              xlink:href="assets/whitespace_0.png"
              x="0"
              y="50"
              width="1900"
              height="1000"
              id="bg-3"
              preserveAspectRatio="xMidYMid slice"
              filter="url(#blur)"
              clip-path="url(#performance-block-clip)" opacity="0.3"/>




      <!-- <g id="bplist-1">
        <rect class="cls-12" width="668" height="60" rx="10" ry="10" x="280.5" y="520" transform="skewX(-10)" />
       <image xlink:href="static/osuAssets/GradeSmall-A.svg"
        x="196.5"
        y="540"
        width="40"
        height="20"
        preserveAspectRatio="xMidYMid slice"
        id="grade-1"/>
        <text class="cls-30" id="songTitle-1" transform="translate(250 546.67)">Song by Artist</text>
        <text id="diff-1" class="cls-26" transform="translate(306.67 566.67)">Diffculty</text>
        <rect id="star-bg-1" fill="#321cb2" x="246" y="553.5" rx="10" ry="10" width="58" height="17.5"/>
        <polygon id="starRatingStar-1" transform="translate(176.4,414.5),scale(0.4)"  fill="#f3b814" points="200 355.86 204.16 364.28 213.45 365.63 206.72 372.19 208.31 381.44 200 377.07 191.69 381.44 193.28 372.19 186.55 365.63 195.84 364.28 200 355.86"/>
        <text class="cls-34" text-anchor="middle" id="star-1" transform="translate(281 566.67)">0.00</text>
        <text id="acc-1" class="cls-36" transform="translate(596.67 546.67)">100.0%</text>
        <text id="pp-1" text-anchor="middle" class="cls-31" transform="translate(775 566.67)">000</text>
        <text id="songTitle1-6" class="cls-38" transform="translate(830 540)">PP</text>
        <text class="cls-34" id="combo-1" transform="translate(596.67 566.67)">0000x</text>

      </g> -->
      
    </g>

  <rect class="cls-10" x="60" y="110" width="90" height="90" rx="10" ry="10"/>

    <image x="60" y="110" id="avatar" width="90" height="90" xlink:href="assets/guestAvatar.png" clip-path="url(#avatarClip)"/>
    
    <text class="cls-33" transform="translate(165 170)" fill="hsl(192, 95%, 36%)" id="playername">PlayerName</text>
    <text class="cls-25" font-size="20px" fill="hsl(192, 95%, 36%)" id="requestTime" transform="translate(60 40)">0000/00/00  00:00:00</text>
    <text class="cls-32" fill="hsl(192, 100%, 68%)" transform="translate(60 20)">Request Time</text>
    <text class="cls-28" fill="hsl(192, 95%, 36%)" transform="translate(100 335)"><tspan>#</tspan><tspan id="countryRank">000</tspan></text>
  
    <!-- <rect class="cls-10" id="badge-1" x="165" y="170" width="50" height="25" rx="5" ry="5"/>
    <rect class="cls-10" id="badge-2" x="225" y="170" width="50" height="25" rx="5" ry="5"/> -->

    <rect stroke="hsl(192, 95%, 36%)" stroke-width="2" fill="none" x="60" y="320" width="35" height="20" rx="5" ry="5"/>
    <text class="cls-28" fill="hsl(192, 95%, 36%)" transform="translate(67 335)" id="countryAbbrv">CN</text>
   
    
    <text class="cls-40" fill="hsl(192, 95%, 36%)" transform="translate(540 130)">Global</text>
    <text class="cls-40" fill="#f285b1" transform="translate(750 130)">PP</text>
 
    <text class="cls-33" id="globalRank" fill="hsl(192, 95%, 40%)" transform="translate(540 170)">#20000</text>
    <text class="cls-33" id="ppValue" fill="#f285b1" transform="translate(750 170)">10000</text>
   
   <g opacity="0.15">  
    <text class="cls-19" id="rankImprove" transform="translate(560 190)">000</text>
    <text class="cls-19" id="ppImprove" transform="translate(770 190)">000</text>
    <polygon class="cls-19" id="upArrow-rank" points="553.94 186.06 550 182.12 546.06 186.06 543.94 183.94 550 177.88 556.06 183.94 553.94 186.06"/>
    <polygon class="cls-19" id="downArrow-pp" points="760 187.12 753.94 181.06 756.06 178.94 760 182.88 763.94 178.94 766.06 181.06 760 187.12"/>
    
   </g>
   <g transform="translate(30,20)" id="rankGraphGroup" opacity="0.7">
   <text class="cls-28" id="rankGraph-label-1" fill="hsl(192, 95%, 36%)" transform="translate(38,355)"> 10.4k</text>
   <text class="cls-28" id="rankGraph-label-2" fill="hsl(192, 95%, 36%)" transform="translate(38,420)"> 11.5k</text>
   
   <line x1="80" y1="350" x2="390" y2="350" stroke-dasharray="3" stroke-width="1" stroke="#333" opacity="0.2"/>
   <line x1="80" y1="387.5" x2="390" y2="387.5" stroke-dasharray="3" stroke-width="1" stroke="#333" opacity="0.2"/>
   <line x1="80" y1="420" x2="390" y2="420" stroke-dasharray="3" stroke-width="1" stroke="#333" opacity="0.2"/>

   
   </g>

    <!-- <text class="cls-33" opacity="0.3" transform="translate(125 420)">Rank Graph</text> -->
  </g>
</svg>