<svg width="1920" height="1080"
	 viewBox="0 0 1920 1080"
	 fill="none" xmlns="http://www.w3.org/2000/svg" xmlns:xlink="http://www.w3.org/1999/xlink">

	<defs>
		<style>
			.cls-1 {
			font-family: Outfit-Regular, Outfit;
			}

		</style>
		<clipPath id="bancho-clip">
			<rect width="742" height="389" x="1178.500000" y="60" fill="rgb(196,196,196)" />
		</clipPath>
		<clipPath id="star-clip">
			<rect x="1890" y="1048" fill="#000" width="20" height="20"/>
		</clipPath>
	</defs>

	<g clip-path="url(#clip0_1_2724)">
		<rect width="1920" height="1080" fill="#F2F2F2"/>
		<mask id="path-1-inside-1_1_2724" fill="white">
			<path d="M0 0H1920V60H0V0Z"/>
		</mask>
		<path d="M0 0H1920V60H0V0Z" fill="#F2F2F2"/>
		<path d="M1920 60V59H0V60V61H1920V60Z" fill="#0D0D0D" mask="url(#path-1-inside-1_1_2724)"/>
		<image
				xlink:href="assets/zet.jpg"
				width="40"
				x="10"
				y="10"
				height="40"
				preserveAspectRatio="xMidYMid slice"
				id="avatar"/>
		<text fill="#0D0D0D" id="playername" class="cls-1" x="130" y="37" font-size="20" text-anchor="middle">Apeuriox</text>
		<path d="M228 10V50" stroke="black" transform="translate(-1,0)"/>

		<text fill="#0D0D0D" id="time" class="cls-1" x="365" y="37"  text-anchor="middle" font-size="20">0000-00-00 / 00:00:00</text>
		<path d="M578 10V50" stroke="black" transform="translate(-75,0)"/>

		<text fill="#0D0D0D" class="cls-1" x="610" y="37"  text-anchor="middle" font-size="20"><tspan id="mod">Nomod</tspan></text>
		<path d="M578 10V50" stroke="black" transform="translate(140,0)"/>

		<path d="M1864 10V50" stroke="black" transform="translate(-30,0)"/>
		<text fill="#0D0D0D" id="client" class="cls-1" font-size="20" text-anchor="middle" x="1880" y="36.88">Stable</text>

		<mask id="path-10-inside-2_1_2724" fill="white">
			<path d="M0 60H1920V450H0V60Z"/>
		</mask>


		<path d="M0 60H1920V450H0V60Z" fill="#F2F2F2"/>
		<path d="M1920 450V449H0V450V451H1920V450Z" fill="#0D0D0D" mask="url(#path-10-inside-2_1_2724)"/>


		<text fill="#0D0D0D" class="cls-1" font-size="45" x="20" y="120">Statistics</text>
		<rect x="294" y="140" fill="#E0F6FC" width="20" height="20"/>
		<rect x="294" y="182" fill="#B9F8C9" width="20" height="20"/>
		<rect x="294" y="223" fill="#FCEDE0" width="20" height="20"/>
		<rect x="294" y="265" fill="#FCE0E0" width="20" height="20"/>
		<text fill="#A6A6A6" class="cls-1" font-size="20"><tspan x="20" y="163.02">Great</tspan></text>
		<text fill="#0D0D0D" class="cls-1" font-size="20" text-anchor="end" x="310" y="163.02" id="300">9999</text>
		<text fill="#A6A6A6" class="cls-1" font-size="20"><tspan x="20" y="204.52">Good</tspan></text>
		<text fill="#0D0D0D" class="cls-1" font-size="20" text-anchor="end" x="310" y="204.52" id="100">9999</text>
		<text fill="#A6A6A6" class="cls-1" font-size="20"><tspan x="20" y="246.02">Meh</tspan></text>
		<text fill="#0D0D0D" class="cls-1" font-size="20" text-anchor="end" x="310" y="246.02" id="50">9999</text>
		<text fill="#A6A6A6" class="cls-1" font-size="20"><tspan x="20" y="287.52">Miss</tspan></text>
		<text fill="#0D0D0D" class="cls-1" font-size="20" text-anchor="end" x="310" y="287.52" id="miss">9999</text>
		<text fill="#A6A6A6" class="cls-1" font-size="20"><tspan x="20" y="329.02">Combo</tspan></text>
		<text fill="#0D0D0D" class="cls-1" id="combo" font-size="20" text-anchor="end" x="310" y="329.02">999/9999 (11.11%)</text>
		<rect id="rankRect" opacity="0.6" x="40" y="390" fill="#E2FDD8" width="40" height="40"/>
		<text fill="#0D0D0D" class="cls-1" font-size="90"><tspan x="10" y="419.84" id="rank">A</tspan></text>
		<text fill="#A6A6A6" class="cls-1" font-size="30" x="310" y="405" text-anchor="end" id="accuracy">99.81%</text>



		<path d="M360 60V450" stroke="black"/>
		<rect x="400" id="ppp-rect-1" y="90" fill="#f2f0e8" width="240" height="240"/>
		<rect x="924" id="ppp-rect-2" y="225" fill="#f2f0e8" width="200" height="200"/>
		<text fill="#0D0D0D" class="cls-1" font-size="45"><tspan x="400" y="120.42">Performance Plus Details</tspan></text>
		<text fill="#A6A6A6" class="cls-1" font-size="20"><tspan x="400" y="163.02">Jump</tspan></text>
		<text fill="#0D0D0D" class="cls-1" font-size="20" text-anchor="end" x="1124" id="jump-ppp" y="163.02">999/9999 (11.11%)</text>
		<text fill="#A6A6A6" class="cls-1" font-size="20"><tspan x="400" y="196.22">Flow</tspan></text>
		<text fill="#0D0D0D" class="cls-1" font-size="20" text-anchor="end" x="1124" id="flow-ppp" y="196.22">999/9999 (11.11%)</text>
		<text fill="#A6A6A6" class="cls-1" font-size="20"><tspan x="400" y="229.42">Precision</tspan></text>
		<text fill="#0D0D0D" class="cls-1" font-size="20" text-anchor="end" x="1124" id="pre-ppp" y="229.42">999/9999 (11.11%)</text>
		<text fill="#A6A6A6" class="cls-1" font-size="20"><tspan x="400" y="262.98">Speed</tspan></text>
		<text fill="#0D0D0D" class="cls-1" font-size="20" text-anchor="end" x="1124" id="spd-ppp" y="262.62">999/9999 (11.11%)</text>
		<text fill="#A6A6A6" class="cls-1" font-size="20"><tspan x="400" y="295.82">Stanmina</tspan></text>
		<text fill="#0D0D0D" class="cls-1" font-size="20" text-anchor="end" x="1124" id="sta-ppp" y="295.82">999/9999 (11.11%)</text>
		<text fill="#A6A6A6" class="cls-1" font-size="20"><tspan x="400" y="329.02">Accuracy</tspan></text>
		<text fill="#0D0D0D" class="cls-1" font-size="20" text-anchor="end" x="1124" id="acc-ppp" y="329.02">999/9999 (11.11%)</text>
		<text fill="black" id="pp-ppp" class="cls-1" font-size="90" x="400" y="419.84">420pp</text>
		<text fill="#A6A6A6" text-anchor="end" x="1124" y="418" id="fc-ppp" class="cls-1" font-size="40">534pp</text>


		<g opacity="0.05" clip-path="url(#bancho-clip)">
			<line x1="1112" x2="1944.70605" y1="162.959473" y2="162.959473" stroke="rgb(0,0,0)" stroke-width="1" />
			<line x1="1112" x2="1944.70605" y1="205.642578" y2="205.642578" stroke="rgb(0,0,0)" stroke-width="1" />
			<line x1="1112" x2="1944.70605" y1="248.325684" y2="248.325684" stroke="rgb(0,0,0)" stroke-width="1" />
			<line x1="1112" x2="1944.70605" y1="291.008789" y2="291.008789" stroke="rgb(0,0,0)" stroke-width="1" />
			<line x1="1112" x2="1944.70605" y1="333.691895" y2="333.691895" stroke="rgb(0,0,0)" stroke-width="1" />
			<line x1="1112" x2="1944.70605" y1="376.375" y2="376.375" stroke="rgb(0,0,0)" stroke-width="1" />
			<line x1="1112" x2="1944.70605" y1="419.058105" y2="419.058105" stroke="rgb(0,0,0)" stroke-width="1" />
			<line x1="1112" x2="1944.70605" y1="461.741211" y2="461.741211" stroke="rgb(0,0,0)" stroke-width="1" />
			<line x1="1112" x2="1944.70605" y1="-5.69091797" y2="-5.69091797" stroke="rgb(0,0,0)" stroke-width="1" />
			<line x1="1112" x2="1944.70605" y1="36.9921875" y2="36.9921875" stroke="rgb(0,0,0)" stroke-width="1" />
			<line x1="1112" x2="1944.70605" y1="79.675293" y2="79.675293" stroke="rgb(0,0,0)" stroke-width="1" />
			<line x1="1112" x2="1944.70605" y1="122.358398" y2="122.358398" stroke="rgb(0,0,0)" stroke-width="1" />
			<line x1="0" x2="832.841309" y1="0" y2="0" stroke="rgb(0,0,0)" stroke-width="1" transform="matrix(0,1,-1,0,1426.34,-194.325)" />
			<line x1="0" x2="832.841309" y1="0" y2="0" stroke="rgb(0,0,0)" stroke-width="1" transform="matrix(0,1,-1,0,1383.67,-194.113)" />
			<line x1="0" x2="832.841309" y1="0" y2="0" stroke="rgb(0,0,0)" stroke-width="1" transform="matrix(0,1,-1,0,1340.99,-193.901)" />
			<line x1="0" x2="832.841309" y1="0" y2="0" stroke="rgb(0,0,0)" stroke-width="1" transform="matrix(0,1,-1,0,1298.32,-193.689)" />
			<line x1="0" x2="832.841309" y1="0" y2="0" stroke="rgb(0,0,0)" stroke-width="1" transform="matrix(0,1,-1,0,1255.64,-193.477)" />
			<line x1="0" x2="832.841309" y1="0" y2="0" stroke="rgb(0,0,0)" stroke-width="1" transform="matrix(0,1,-1,0,1212.96,-193.265)" />
			<line x1="0" x2="832.841309" y1="0" y2="0" stroke="rgb(0,0,0)" stroke-width="1" transform="matrix(0,1,-1,0,1170.29,-193.053)" />
			<line x1="0" x2="832.841309" y1="0" y2="0" stroke="rgb(0,0,0)" stroke-width="1" transform="matrix(0,1,-1,0,1127.61,-192.841)" />
			<line x1="0" x2="832.841309" y1="0" y2="0" stroke="rgb(0,0,0)" stroke-width="1" transform="matrix(0,1,-1,0,1594.96,-195.162)" />
			<line x1="0" x2="832.841309" y1="0" y2="0" stroke="rgb(0,0,0)" stroke-width="1" transform="matrix(0,1,-1,0,1552.29,-194.95)" />
			<line x1="0" x2="832.841309" y1="0" y2="0" stroke="rgb(0,0,0)" stroke-width="1" transform="matrix(0,1,-1,0,1509.61,-194.738)" />
			<line x1="0" x2="832.841309" y1="0" y2="0" stroke="rgb(0,0,0)" stroke-width="1" transform="matrix(0,1,-1,0,1466.94,-194.526)" />
			<line x1="0" x2="832.841309" y1="0" y2="0" stroke="rgb(0,0,0)" stroke-width="1" transform="matrix(0,1,-1,0,1936.38,-195.163)" />
			<line x1="0" x2="832.841309" y1="0" y2="0" stroke="rgb(0,0,0)" stroke-width="1" transform="matrix(0,1,-1,0,1893.7,-194.951)" />
			<line x1="0" x2="832.841309" y1="0" y2="0" stroke="rgb(0,0,0)" stroke-width="1" transform="matrix(0,1,-1,0,1851.03,-194.739)" />
			<line x1="0" x2="832.841309" y1="0" y2="0" stroke="rgb(0,0,0)" stroke-width="1" transform="matrix(0,1,-1,0,1808.35,-194.527)" />
			<line x1="0" x2="832.841309" y1="0" y2="0" stroke="rgb(0,0,0)" stroke-width="1" transform="matrix(0,1,-1,0,1765.68,-194.315)" />
			<line x1="0" x2="832.841309" y1="0" y2="0" stroke="rgb(0,0,0)" stroke-width="1" transform="matrix(0,1,-1,0,1723,-194.103)" />
			<line x1="0" x2="832.841309" y1="0" y2="0" stroke="rgb(0,0,0)" stroke-width="1" transform="matrix(0,1,-1,0,1680.33,-193.891)" />
			<line x1="0" x2="832.841309" y1="0" y2="0" stroke="rgb(0,0,0)" stroke-width="1" transform="matrix(0,1,-1,0,1637.65,-193.679)" />
			<line x1="0" x2="832.841309" y1="0" y2="0" stroke="rgb(0,0,0)" stroke-width="1" transform="matrix(0,1,-1,0,2105,-196)" />
			<line x1="0" x2="832.841309" y1="0" y2="0" stroke="rgb(0,0,0)" stroke-width="1" transform="matrix(0,1,-1,0,2062.32,-195.788)" />
			<line x1="0" x2="832.841309" y1="0" y2="0" stroke="rgb(0,0,0)" stroke-width="1" transform="matrix(0,1,-1,0,2019.65,-195.576)" />
			<line x1="0" x2="832.841309" y1="0" y2="0" stroke="rgb(0,0,0)" stroke-width="1" transform="matrix(0,1,-1,0,1976.97,-195.364)" />
		</g>
		<path d="M1155 60V450" stroke="black"/>

		<text fill="#0D0D0D" class="cls-1" font-size="45"><tspan x="1195" y="120.42">Banchor PP Breakdown</tspan></text>
		<text fill="#A6A6A6" class="cls-1" font-size="20"><tspan x="1195" y="163.02">Aim</tspan></text>
		<text fill="#0D0D0D" class="cls-1" font-size="20" text-anchor="end" id="aim-pp" x="1900" y="163.02">999/9999 (11.11%)</text>
		<text fill="#A6A6A6" class="cls-1" font-size="20"><tspan x="1195" y="204.52">Speed</tspan></text>
		<text fill="#0D0D0D" class="cls-1" font-size="20" text-anchor="end" id="spd-pp" x="1900" y="204.52">999/9999 (11.11%)</text>
		<text fill="#A6A6A6" class="cls-1" font-size="20"><tspan x="1195" y="246.02">Accuracy</tspan></text>
		<text fill="#0D0D0D" class="cls-1" font-size="20" text-anchor="end" id="acc-pp" x="1900" y="246.02">999/9999 (11.11%)</text>
		<text fill="#A6A6A6" class="cls-1" font-size="20"><tspan x="1195" y="287.52">--</tspan></text>
		<text fill="#A6A6A6" class="cls-1" font-size="20"><tspan x="1195" y="329.02">--</tspan></text>
		<text fill="black" class="cls-1" font-size="90" x="1195" id="pp-pp" y="419.84">420pp</text>
		<text fill="#A6A6A6" text-anchor="end" x="1900" y="418" id="fc-pp" class="cls-1" font-size="40">514pp</text>



		<image
				xlink:href="assets/zet.jpg"
				width="1920"
				x="0"
				y="450"
				height="570"
				preserveAspectRatio="xMidYMid slice"
				id="mapBG"/>



		<rect width="1920" height="570" transform="translate(0 450)" fill="url(#paint0_linear_1_2724)" style="mix-blend-mode:multiply"/>
		<text fill="white" class="cls-1" id="titleAndArtist" font-size="60" font-weight="600" x="20" y="955">Some Aewsome Artist - Their Best Song Name</text>
		<text fill="white" class="cls-1" font-size="30" x="22" y="995">
			<tspan font-weight="600" id="version">[Despair]</tspan>
			<tspan font-weight="500"> mapped by </tspan>
			<tspan font-weight="600" id="mapper">Lasse</tspan>
		</text>


		<text fill="white" class="cls-1" id="bid" opacity="0.5" text-anchor="end" font-size="20" x="1900" y="995">1234567890</text>
		<mask id="path-56-inside-3_1_2724" fill="white">
			<path d="M0 1020H1920V1080H0V1020Z"/>
		</mask>


		<path d="M0 1020H1920V1080H0V1020Z" fill="#F2F2F2"/>
		<path d="M0 1020V1021H1920V1020V1019H0V1020Z" fill="#0D0D0D" mask="url(#path-56-inside-3_1_2724)"/>
		<text fill="#0D0D0D" class="cls-1" font-size="20"><tspan x="15" y="1056.52">BPM</tspan></text>
		<text fill="#0D0D0D" class="cls-1" id="bpm" font-size="20" x="67" y="1056.52">000.00</text>
		<text fill="#0D0D0D" class="cls-1" font-size="20"><tspan x="200" y="1056.52">Length</tspan></text>
		<text fill="#0D0D0D" class="cls-1" id="length" font-size="20" x="273" y="1056.52">00:00</text>
		<path d="M580.143 1030V1070" stroke="black" transform="translate(-200,0)"/>


		<text fill="#0D0D0D" class="cls-1" font-size="20" x="410" y="1056.52">AR</text>
		<text fill="#0D0D0D" class="cls-1" font-size="20" id="ar" x="450" y="1056.52">10.0</text>
		<text fill="#0D0D0D" class="cls-1" font-size="20" x="550" y="1056.52">OD</text>
		<text fill="#0D0D0D" class="cls-1" font-size="20" id="od" x="590" y="1056.52">10.0</text>
		<text fill="#0D0D0D" class="cls-1" font-size="20" x="690" y="1056.52">CS</text>
		<text fill="#0D0D0D" class="cls-1" font-size="20" id="cs" x="730" y="1056.52">4.1</text>
		<text fill="#0D0D0D" class="cls-1" font-size="20" x="830" y="1056.52">HP</text>
		<text fill="#0D0D0D" class="cls-1" font-size="20" id="hp" x="870" y="1056.52">9.9</text>
		<path d="M1740 1070H1740.5V1030H1740H1739.5V1070H1740Z" transform="translate(-810,0)" fill="#0D0D0D"/>
		<path transform="translate(-20,0)" d="M1740 1070H1740.5V1030H1740H1739.5V1070H1740Z" fill="#0D0D0D"/>



		<g id="ranked" opacity="0">
			<rect x="1780" y="1032" fill="#CEF2C1" width="36" height="36"/>
			<text fill="#0D0D0D" class="cls-1" font-size="20" x="1735" y="1056.52">Ranked</text>
		</g>
		<g id="approved" opacity="0">
			<rect x="1800" y="1032" fill="#CEF2C1" width="36" height="36"/>
			<text fill="#0D0D0D" class="cls-1" font-size="20" x="1735" y="1056.52">Approved</text>
		</g>
		<g id="qualified" opacity="0">
			<rect x="1793" y="1032" fill="#C1E6F2" width="36" height="36"/>
			<text fill="#0D0D0D" class="cls-1" font-size="20" x="1735" y="1056.52">Qualified</text>
		</g>
		<g id="loved" opacity="0">
			<rect x="1765" y="1032" fill="#FFB2CC" width="36" height="36"/>
			<text fill="#0D0D0D" class="cls-1" font-size="20" x="1735" y="1056.52">Loved</text>
		</g>
		<g id="pending" opacity="0">
			<rect x="1785" y="1032" fill="#FCDF90" width="36" height="36"/>
			<text fill="#0D0D0D" class="cls-1" font-size="20" x="1735" y="1056.52">Pending</text>
		</g>
		<g id="wip" opacity="0">
			<rect x="1755" y="1032" fill="#FEA889" width="36" height="36"/>
			<text fill="#0D0D0D" class="cls-1" font-size="20" x="1735" y="1056.52">WIP</text>
		</g>
		<g id="graveyard" opacity="0">
			<rect x="1805" y="1032" fill="#BFBFBF" width="36" height="36"/>
			<text fill="#0D0D0D" class="cls-1" font-size="20" x="1735" y="1056.52">Graveyard</text>
		</g>

		<rect id="star-rect" x="1890" y="1048" fill="#000" width="20" height="20"/>
		<text id="star-1" fill="#0D0D0D" text-anchor="middle" class="cls-1" font-size="20" x="1880" y="1056.52">9.90</text>
		<text id="star-2" clip-path="url(#star-clip)" fill="#fed967" text-anchor="middle" class="cls-1" font-size="20" x="1880" y="1056.52">9.90</text>

	</g>

	<defs>

		<linearGradient id="paint0_linear_1_2724" x1="960" y1="570" x2="960" y2="0" gradientUnits="userSpaceOnUse">
			<stop stop-opacity="0.35"/>
			<stop offset="1" stop-opacity="0"/>
		</linearGradient>
		<clipPath id="clip0_1_2724">
			<rect width="1920" height="1080" fill="white"/>
		</clipPath>

	</defs>

</svg>
