<?xml version="1.0" encoding="UTF-8"?>
<svg xmlns="http://www.w3.org/2000/svg" viewBox="0 0 1920 1080" 
xmlns:xlink="http://www.w3.org/1999/xlink">
  <defs>
    <style>
      .cls-1 {
        letter-spacing: -.03em;
      }

      .cls-2 {
        font-size: 10px;
      }

      .cls-2, .cls-3, .cls-4, .cls-5, .cls-6, .cls-7, .cls-8, .cls-9, .cls-10, .cls-11, .cls-12, .cls-13, .cls-14 {
        font-family: Outfit-Regular, Outfit;
      }

      .cls-2, .cls-15, .cls-8, .cls-10, .cls-12, .cls-14 {
        fill: #4d4d4d;
      }

      .cls-16 {
        letter-spacing: -.02em;
      }

      .cls-17 {
        letter-spacing: -.03em;
      }

      .cls-18 {
        letter-spacing: -.03em;
      }

      .cls-19 {
        letter-spacing: -.1em;
      }

      .cls-20 {
    
        opacity:0.7;
      }

      .cls-21 {
        letter-spacing: -.02em;
      }

      .cls-22 {
        letter-spacing: -.05em;
      }

      .cls-3, .cls-4, .cls-5, .cls-6, .cls-23, .cls-7, .cls-24, .cls-9, .cls-25, .cls-26, .cls-13 {
        fill: #333;
      }

      .cls-3, .cls-15, .cls-23, .cls-7, .cls-8, .cls-11, .cls-12 {
        font-size: 30px;
      }

      .cls-4 {
        font-size: 75px;
      }

      .cls-27 {
        letter-spacing: -.05em;
      }

      .cls-28 {
        letter-spacing: 0em;
      }

      .cls-29 {
        letter-spacing: -.04em;
      }

      .cls-30 {
        letter-spacing: -.08em;
      }

      .cls-31 {
        letter-spacing: -.03em;
      }

      .cls-32 {
        letter-spacing: -.02em;
      }

      .cls-33 {
        letter-spacing: 0em;
      }

      .cls-34 {
        letter-spacing: -.02em;
      }

      .cls-5, .cls-10, .cls-13 {
        font-size: 15px;
      }

      .cls-35 {
        letter-spacing: -.03em;
      }

      .cls-36 {
        letter-spacing: 0em;
      }

      .cls-37 {
        letter-spacing: -.05em;
      }

      .cls-38 {
        letter-spacing: -.03em;
      }

      .cls-15, .cls-23, .cls-25, .cls-26 {
        font-family: Outfit-Bold, Outfit;
        font-weight: 700;
      }

      .cls-39 {
        letter-spacing: -.01em;
      }

      .cls-40 {
        letter-spacing: -.01em;
      }

      .cls-41 {
        letter-spacing: -.03em;
      }

      .cls-6, .cls-25, .cls-14 {
        font-size: 20px;
      }

      .cls-42 {
        letter-spacing: -.02em;
      }

      .cls-43 {
        letter-spacing: 0em;
      }

      .cls-44 {
        letter-spacing: 0em;
      }

      .cls-45 {
        letter-spacing: -.03em;
      }

      .cls-7, .cls-46, .cls-8, .cls-13 {
        isolation: isolate;
      }

      .cls-47 {
        letter-spacing: -.03em;
      }

      .cls-48 {
        letter-spacing: -.09em;
      }

      .cls-49 {
        letter-spacing: 0em;
      }

      .cls-50 {
        letter-spacing: -.03em;
      }

      .cls-51 {
        letter-spacing: -.02em;
      }

      .cls-52 {
        letter-spacing: 0em;
      }

      .cls-53 {
        letter-spacing: -.01em;
      }

      .cls-54 {
        letter-spacing: -.11em;
      }

      .cls-55 {
        letter-spacing: -.03em;
      }

      .cls-56 {
        letter-spacing: -.04em;
      }

      .cls-57 {
        letter-spacing: 0em;
      }

      .cls-58 {
        letter-spacing: -.03em;
      }

      .cls-9 {
        font-size: 90px;
      }

      .cls-59 {
        fill: #999;
      }

      .cls-60 {
        letter-spacing: -.03em;
      }

      .cls-61 {
        letter-spacing: -.02em;
      }

      .cls-62 {
        mix-blend-mode: overlay;
      }

      .cls-63 {
        letter-spacing: -.01em;
      }

      .cls-64 {
        letter-spacing: -.02em;
      }

      .cls-65 {
        letter-spacing: 0em;
      }

      .cls-26 {
        font-size: 210px;
        letter-spacing: -.03em;
      }

      .cls-66 {
        letter-spacing: -.07em;
      }

      .cls-67 {
        letter-spacing: 0em;
      }

      .cls-11 {
        fill: #1a1a1a;
      }

      .cls-68 {
        letter-spacing: -.04em;
      }

      .cls-69 {
        fill: #ccc;
      }

      .cls-70 {
        fill: #b3b3b3;
      }

      .cls-71 {
        letter-spacing: 0em;
      }

      .cls-72 {
        letter-spacing: -.02em;
      }

      .cls-73 {
        letter-spacing: 0em;
      }

      .cls-74 {
        fill: gray;
      
      }

      .cls-75 {
        fill: none;
        stroke: gray;
        stroke-miterlimit: 10;
      }

      .cls-76 {
        letter-spacing: -.05em;
      }

      .cls-77 {
        letter-spacing: -.05em;
      }

      .cls-78 {
        letter-spacing: 0em;
      }

      .cls-79 {
        letter-spacing: -.01em;
      }

      .cls-80 {
        letter-spacing: -.05em;
      }

      .cls-81 {
        letter-spacing: -.03em;
      }

      .cls-82 {
        letter-spacing: -.03em;
      }

      .cls-83 {
        letter-spacing: -.04em;
      }

      .cls-84 {
        letter-spacing: 0em;
      }

      .cls-85 {
        letter-spacing: 0em;
      }

      .cls-86 {
        letter-spacing: -.07em;
      }

      .cls-87 {
        fill: #e6e6e6;
        opacity:0.7;
      }

      .cls-88 {
        letter-spacing: -.03em;
      }
    </style>
  </defs>
  <g class="cls-46">
    <g id="Deco">
        <image
            xlink:href="assets/2287983.jpg"
            x="0"
            y="0"
            width="1920"
            height="990"
            preserveAspectRatio="xMidYMid slice"
            id="mapBg"/>
      <rect class="cls-87" x="915" y="75" width="90" height="1920" transform="translate(-75 1995) rotate(-90)"/>
      <line class="cls-75" x1="0" y1="990.5" x2="1920" y2="990.5"/>
      <rect class="cls-74" x="20" y="1010" width="50" height="50" rx="15" ry="15"/>
      <rect class="cls-87" x="20" y="20" width="440" height="950" rx="30" ry="30"/>
      <rect class="cls-69" x="40" y="510" width="400" height="440" rx="20" ry="20"/>
      <path class="cls-70" d="M402.5,617.5H80s0-35,0-35h322.5c9.66,0,17.5,7.84,17.5,17.5h0c0,9.67-7.84,17.5-17.5,17.5Z"/>
      <path class="cls-59" d="M80,582.5h72.5c9.66,0,17.5,7.84,17.5,17.5h0c0,9.66-7.84,17.5-17.5,17.5h-72.5v-35h0Z"/>
      <path class="cls-70" d="M80.89,581.07h0c1.13,1,2.74,1.26,4.12.65h0c2.09-.91,4.51.16,5.22,2.33h0c.48,1.43,1.74,2.46,3.24,2.63h0c2.26.25,3.82,2.4,3.36,4.63h0c-.31,1.48.28,3,1.5,3.9h0c1.84,1.35,2.11,3.99.6,5.69h0c-1,1.13-1.26,2.74-.65,4.12h0c.91,2.09-.16,4.51-2.33,5.22h0c-1.43.48-2.46,1.74-2.63,3.24h0c-.25,2.26-2.4,3.82-4.63,3.36h0c-1.48-.31-3,.28-3.9,1.5h0c-1.35,1.84-3.99,2.11-5.69.6h0c-1.13-1-2.74-1.26-4.12-.65h0c-2.09.91-4.51-.16-5.22-2.33h0c-.48-1.43-1.74-2.46-3.24-2.63h0c-2.26-.25-3.82-2.4-3.36-4.63h0c.31-1.48-.28-3-1.5-3.9h0c-1.84-1.35-2.11-3.99-.6-5.69h0c1-1.13,1.26-2.74.65-4.12h0c-.91-2.09.16-4.51,2.33-5.22h0c1.43-.48,2.46-1.74,2.63-3.24h0c.25-2.26,2.4-3.82,4.63-3.36h0c1.48.31,3-.28,3.9-1.5h0c1.35-1.84,3.99-2.11,5.69-.6Z"/>
      <polygon class="cls-24" points="80 590 82.94 595.95 89.51 596.91 84.76 601.55 85.88 608.09 80 605 74.12 608.09 75.24 601.55 70.49 596.91 77.06 595.95 80 590"/>
      <path class="cls-74" d="M860,1018.33c9.19,0,16.67,7.48,16.67,16.67s-7.48,16.67-16.67,16.67-16.67-7.48-16.67-16.67,7.48-16.67,16.67-16.67M860,1015c-11.05,0-20,8.95-20,20s8.95,20,20,20,20-8.95,20-20-8.95-20-20-20h0ZM860,1021.67c-7.36,0-13.33,5.97-13.33,13.33s5.97,13.33,13.33,13.33,13.33-5.97,13.33-13.33-5.97-13.33-13.33-13.33Z"/>
      <path class="cls-69" d="M926.67,1018.33c9.19,0,16.67,7.48,16.67,16.67s-7.48,16.67-16.67,16.67-16.67-7.48-16.67-16.67,7.48-16.67,16.67-16.67M926.67,1015c-11.05,0-20,8.95-20,20s8.95,20,20,20,20-8.95,20-20-8.95-20-20-20h0ZM926.67,1025c5.51,0,10,4.49,10,10s-4.49,10-10,10-10-4.49-10-10,4.49-10,10-10M926.67,1021.67c-7.36,0-13.33,5.97-13.33,13.33s5.97,13.33,13.33,13.33,13.33-5.97,13.33-13.33-5.97-13.33-13.33-13.33h0ZM928.33,1022.33h-3.33v25.33h3.33v-25.33Z"/>
      <path class="cls-69" d="M993.33,1018.33c9.19,0,16.67,7.48,16.67,16.67s-7.48,16.67-16.67,16.67-16.67-7.48-16.67-16.67,7.48-16.67,16.67-16.67M993.33,1015c-11.05,0-20,8.95-20,20s8.95,20,20,20,20-8.95,20-20-8.95-20-20-20h0ZM995,1028.33c0,1.84-1.49,3.33-3.33,3.33s-3.33-1.49-3.33-3.33,1.49-3.33,3.33-3.33,3.33,1.49,3.33,3.33ZM991.67,1038.33c-1.84,0-3.33,1.49-3.33,3.33s1.49,3.33,3.33,3.33,3.33-1.49,3.33-3.33-1.49-3.33-3.33-3.33ZM998.33,1031.67c-1.84,0-3.33,1.49-3.33,3.33s1.49,3.33,3.33,3.33,3.33-1.49,3.33-3.33-1.49-3.33-3.33-3.33Z"/>
      <path class="cls-69" d="M1060,1018.33c9.19,0,16.67,7.48,16.67,16.67s-7.48,16.67-16.67,16.67-16.67-7.48-16.67-16.67,7.48-16.67,16.67-16.67M1060,1015c-11.05,0-20,8.95-20,20s8.95,20,20,20,20-8.95,20-20-8.95-20-20-20h0ZM1061.67,1048.33v-26.67c0-.92-.75-1.67-1.67-1.67s-1.67.75-1.67,1.67v26.67c0,.92.75,1.67,1.67,1.67s1.67-.75,1.67-1.67ZM1068.33,1041.67v-13.33c0-.92-.75-1.67-1.67-1.67s-1.67.75-1.67,1.67v13.33c0,.92.75,1.67,1.67,1.67s1.67-.75,1.67-1.67ZM1055,1041.67v-13.33c0-.92-.75-1.67-1.67-1.67s-1.67.75-1.67,1.67v13.33c0,.92.75,1.67,1.67,1.67s1.67-.75,1.67-1.67Z"/>
      <circle class="cls-74" cx="660" cy="330" r="160"/>
      <rect class="cls-74" x="840" y="170" width="320" height="320" rx="30" ry="30"/>
      <rect class="cls-87" x="840" y="510" width="540" height="210" rx="30" ry="30"/>
      <rect class="cls-87" x="500" y="740" width="880" height="210" rx="30" ry="30"/>
    </g>
    <g id="Main">
      <text class="cls-2" transform="translate(80 1020)"><tspan class="cls-67" x="0" y="0">P</tspan><tspan class="cls-41" x="5.98" y="0">L</tspan><tspan class="cls-54" x="11.25" y="0">A</tspan><tspan class="cls-34" x="17.16" y="0">Y</tspan><tspan x="23.57" y="0">ER N</tspan><tspan class="cls-67" x="44.95" y="0">A</tspan><tspan x="51.83" y="0">ME</tspan></text>
      <text class="cls-11" transform="translate(80 1050)"><tspan x="0" y="0">Pla</tspan><tspan class="cls-31" x="42.3" y="0">y</tspan><tspan class="cls-84" x="56.94" y="0">er Name</tspan></text>
      <text class="cls-2" transform="translate(1832.72 1020)"><tspan class="cls-67" x="0" y="0">A</tspan><tspan class="cls-34" x="6.88" y="0">R</tspan><tspan x="12.94" y="0">CHIVE</tspan><tspan class="cls-16" x="42.24" y="0"> </tspan><tspan x="44.16" y="0">TIME</tspan></text>
      <text class="cls-11" transform="translate(1704.13 1050)"><tspan class="cls-83" x="0" y="0">YYY</tspan><tspan class="cls-30" x="56.07" y="0">Y</tspan><tspan x="73.47" y="0">-MM-DD</tspan></text>
      <text class="cls-2" transform="translate(240 1020)"><tspan class="cls-67" x="0" y="0">A</tspan><tspan x="6.88" y="0">DD</tspan><tspan class="cls-53" x="21.68" y="0">R</tspan><tspan class="cls-64" x="27.84" y="0">ES</tspan><tspan class="cls-65" x="38.93" y="0">S</tspan><tspan x="44.41" y="0">@EM</tspan><tspan class="cls-73" x="66.2" y="0">A</tspan><tspan class="cls-28" x="73.08" y="0">IL</tspan><tspan class="cls-56" x="81.18" y="0">.</tspan><tspan class="cls-58" x="83.72" y="0">C</tspan><tspan x="90.32" y="0">OM</tspan></text>
      <text class="cls-23" transform="translate(60 80)"><tspan class="cls-36" x="0" y="0">S</tspan><tspan class="cls-84" x="17.67" y="0">ONG IN</tspan><tspan class="cls-33" x="124.17" y="0">F</tspan><tspan x="141.63" y="0">O</tspan></text>
      <text class="cls-10" transform="translate(60 120)"><tspan x="0" y="0">TITLE</tspan></text>
      <text class="cls-3" transform="translate(60 150)"><tspan x="0" y="0">TITLE</tspan></text>
      <text class="cls-10" transform="translate(60 180)"><tspan class="cls-67" x="0" y="0">A</tspan><tspan class="cls-77" x="10.32" y="0">R</tspan><tspan x="19" y="0">T</tspan><tspan class="cls-40" x="28.38" y="0">I</tspan><tspan class="cls-55" x="32.04" y="0">S</tspan><tspan class="cls-51" x="39.88" y="0">T</tspan></text>
      <text class="cls-3" transform="translate(60 210)"><tspan class="cls-33" x="0" y="0">A</tspan><tspan class="cls-76" x="20.64" y="0">R</tspan><tspan x="38.01" y="0">T</tspan><tspan class="cls-79" x="56.76" y="0">I</tspan><tspan class="cls-55" x="64.08" y="0">S</tspan><tspan class="cls-32" x="79.77" y="0">T</tspan></text>
      <text class="cls-10" transform="translate(60 240)"><tspan x="0" y="0">M</tspan><tspan class="cls-67" x="12.58" y="0">APP</tspan><tspan x="40.84" y="0">ER</tspan></text>
      <text class="cls-3" transform="translate(60 270)"><tspan x="0" y="0">M</tspan><tspan class="cls-67" x="25.17" y="0">APP</tspan><tspan x="81.69" y="0">ER</tspan></text>
      <text class="cls-10" transform="translate(60 300)"><tspan x="0" y="0">DIFFUCU</tspan><tspan class="cls-48" x="62.76" y="0">L</tspan><tspan class="cls-80" x="69.67" y="0">T</tspan><tspan class="cls-81" x="78.34" y="0">Y</tspan></text>
      <text class="cls-3" transform="translate(60 330)"><tspan x="0" y="0">DIFFUCU</tspan><tspan class="cls-48" x="125.52" y="0">L</tspan><tspan class="cls-22" x="139.35" y="0">T</tspan><tspan class="cls-81" x="156.69" y="0">Y</tspan></text>
      <text class="cls-23" transform="translate(60 550)"><tspan x="0" y="0">M</tspan><tspan class="cls-67" x="25.74" y="0">A</tspan><tspan class="cls-72" x="47.37" y="0">P</tspan><tspan x="65.67" y="0" xml:space="preserve"> IN</tspan><tspan class="cls-33" x="102.3" y="0">F</tspan><tspan x="119.76" y="0">O</tspan></text>
      <text class="cls-6" transform="translate(110 607.5)"><tspan class="cls-35" x="0" y="0">0.</tspan><tspan class="cls-78" x="17.84" y="0">00</tspan></text>
      <text class="cls-25" transform="translate(180 607.5)"><tspan class="cls-68" x="0" y="0">R</tspan><tspan class="cls-43" x="12.32" y="0">A</tspan><tspan x="26.74" y="0">N</tspan><tspan class="cls-64" x="41.5" y="0">K</tspan><tspan x="55.24" y="0">ED</tspan></text>
      <text class="cls-10" transform="translate(60 650)"><tspan x="0" y="0">BID</tspan></text>
      <text class="cls-3" transform="translate(60 680)"><tspan x="0" y="0">123</tspan><tspan class="cls-40" x="42.78" y="0">4</tspan><tspan x="60.3" y="0">5</tspan><tspan class="cls-60" x="76.53" y="0">6</tspan><tspan class="cls-42" x="92.46" y="0">7</tspan><tspan class="cls-39" x="107.55" y="0">8</tspan><tspan x="123.69" y="0">90</tspan></text>
      <text class="cls-10" transform="translate(60 780)"><tspan x="0" y="0">B</tspan><tspan class="cls-67" x="9.34" y="0">P</tspan><tspan x="18.31" y="0">M</tspan></text>
      <text class="cls-3" transform="translate(60 810)"><tspan x="0" y="0">0000</tspan></text>
      <text class="cls-10" transform="translate(240 780)"><tspan x="0" y="0">LEN</tspan><tspan class="cls-47" x="27.78" y="0">G</tspan><tspan x="38.92" y="0">TH</tspan></text>
      <text class="cls-3" transform="translate(240 810)"><tspan x="0" y="0">0000</tspan></text>
      <text class="cls-10" transform="translate(60 840)"><tspan class="cls-67" x="0" y="0">A</tspan><tspan class="cls-49" x="10.32" y="0">R</tspan></text>
      <text class="cls-3" transform="translate(60 870)"><tspan x="0" y="0">0000</tspan></text>
      <text class="cls-10" transform="translate(240 840)"><tspan x="0" y="0">OD</tspan></text>
      <text class="cls-3" transform="translate(240 870)"><tspan x="0" y="0">0000</tspan></text>
      <text class="cls-10" transform="translate(60 900)"><tspan class="cls-63" x="0" y="0">C</tspan><tspan x="10.14" y="0">S</tspan></text>
      <text class="cls-3" transform="translate(60 930)"><tspan x="0" y="0">0000</tspan></text>
      <text class="cls-10" transform="translate(240 900)"><tspan x="0" y="0">H</tspan><tspan class="cls-21" x="10.59" y="0">P</tspan></text>
      <text class="cls-3" transform="translate(240 930)"><tspan x="0" y="0">0000</tspan></text>
      <g>
        <path class="cls-74" d="M530,510h260c16.56,0,30,13.44,30,30v15c0,2.76-2.24,5-5,5h-310c-2.76,0-5-2.24-5-5v-15c0-16.56,13.44-30,30-30Z"/>
        <text class="cls-10" transform="translate(520 530)"><tspan x="0" y="0">G</tspan><tspan class="cls-53" x="11.59" y="0">R</tspan><tspan x="20.83" y="0">E</tspan><tspan class="cls-19" x="29.69" y="0">A</tspan><tspan class="cls-51" x="38.61" y="0">T</tspan></text>
        <text class="cls-3" transform="translate(580 545)"><tspan x="0" y="0">0000</tspan></text>
      </g>
      <g>
        <rect class="cls-59" x="500" y="563.33" width="320" height="50" rx="5" ry="5"/>
        <text class="cls-10" transform="translate(520 583.33)"><tspan x="0" y="0">O</tspan><tspan class="cls-81" x="11.91" y="0">K</tspan></text>
        <text class="cls-3" transform="translate(580 598.33)"><tspan x="0" y="0">0000</tspan></text>
      </g>
      <g>
        <rect class="cls-70" x="500" y="616.67" width="320" height="50" rx="5" ry="5"/>
        <text class="cls-10" transform="translate(520 636.67)"><tspan x="0" y="0">MEH</tspan></text>
        <text class="cls-3" transform="translate(580 651.67)"><tspan x="0" y="0">0000</tspan></text>
      </g>
      <g>
        <path class="cls-69" d="M530,670h260c16.56,0,30,13.44,30,30v15c0,2.76-2.24,5-5,5h-310c-2.76,0-5-2.24-5-5v-15c0-16.56,13.44-30,30-30Z" transform="translate(1320 1390) rotate(-180)"/>
        <text class="cls-10" transform="translate(520 690)"><tspan x="0" y="0">M</tspan><tspan class="cls-40" x="12.58" y="0">I</tspan><tspan class="cls-21" x="16.25" y="0">S</tspan><tspan class="cls-49" x="24.3" y="0">S</tspan></text>
        <text class="cls-3" transform="translate(580 705)"><tspan x="0" y="0">0000</tspan></text>
      </g>
      <text class="cls-26" transform="translate(583.46 390)"><tspan x="0" y="0">A</tspan></text>
      <g>
        <text class="cls-3" transform="translate(563.95 439.58) rotate(37.43)"><tspan x="0" y="0">0</tspan></text>
        <text class="cls-3" transform="translate(581.2 452.61) rotate(28.95)"><tspan x="0" y="0">0</tspan></text>
        <text class="cls-3" transform="translate(600.14 462.93) rotate(20.43)"><tspan x="0" y="0">0</tspan></text>
        <text class="cls-3" transform="translate(619.13 469.67) rotate(14.7)"><tspan x="0" y="0">,</tspan></text>
        <text class="cls-3" transform="translate(627.51 472.14) rotate(8.97)"><tspan x="0" y="0">0</tspan></text>
        <text class="cls-3" transform="translate(648.99 475.29) rotate(.93)"><tspan x="0" y="0">0</tspan></text>
        <text class="cls-3" transform="translate(670.43 475.42) rotate(-7.93)"><tspan x="0" y="0">0</tspan></text>
        <text class="cls-3" transform="translate(690.34 472.33) rotate(-13.66)"><tspan x="0" y="0">,</tspan></text>
        <text class="cls-3" transform="translate(698.87 470.53) rotate(-19.38)"><tspan x="0" y="0">0</tspan></text>
        <text class="cls-3" transform="translate(719.2 463.22) rotate(-27.92)"><tspan x="0" y="0">0</tspan></text>
        <text class="cls-3" transform="translate(738.22 452.98) rotate(-36.4)"><tspan x="0" y="0">0</tspan></text>
      </g>
      <text class="cls-15" transform="translate(618.3 220)"><tspan class="cls-56" x="0" y="0">R</tspan><tspan class="cls-33" x="18.48" y="0">A</tspan><tspan x="40.11" y="0">N</tspan><tspan class="cls-81" x="62.25" y="0">K</tspan></text>
      <text class="cls-15" transform="translate(870 220)"><tspan class="cls-71" x="0" y="0">P</tspan><tspan class="cls-72" x="18.63" y="0">P</tspan></text>
      <text class="cls-9" transform="translate(860 360)"><tspan class="cls-38" x="0" y="0">0,</tspan><tspan class="cls-85" x="78.93" y="0">000</tspan></text>
      <text class="cls-12" transform="translate(860 550)"><tspan class="cls-37" x="0" y="0">A</tspan><tspan class="cls-81" x="19.32" y="0">C</tspan><tspan x="39.12" y="0">CU</tspan><tspan class="cls-29" x="80.25" y="0">R</tspan><tspan class="cls-37" x="98.07" y="0">A</tspan><tspan class="cls-81" x="117.39" y="0">CY</tspan></text>
      <text class="cls-14" transform="translate(860 670)"><tspan class="cls-88" x="0" y="0">C</tspan><tspan x="13.2" y="0">OMBO</tspan></text>
      <text class="cls-4" transform="translate(860 620)"><tspan x="0" y="0">0</tspan><tspan class="cls-18" x="49.2" y="0">0.</tspan><tspan x="116.1" y="0">00%</tspan></text>
      <text class="cls-3" transform="translate(860 700)"><tspan x="0" y="0">0000X/0000X(0</tspan><tspan class="cls-50" x="239.37" y="0">0.</tspan><tspan x="266.13" y="0">00%)</tspan></text>
      <text class="cls-8" transform="translate(520 780)"><tspan x="0" y="0">I</tspan><tspan class="cls-57" x="7.74" y="0">F</tspan><tspan x="24.42" y="0"> </tspan><tspan class="cls-39" x="30.66" y="0">F</tspan><tspan x="47.28" y="0">C</tspan></text>
      <g id="iffc">
        <text class="cls-12" transform="translate(630 780)"><tspan x="0" y="0">000 </tspan><tspan class="cls-33" x="65.28" y="0">P</tspan><tspan class="cls-21" x="83.22" y="0">P</tspan></text>
      </g>
      <g class="cls-46">
        <text class="cls-13" transform="translate(520 800)"><tspan x="0" y="0">9</tspan><tspan class="cls-81" x="8.46" y="0">5</tspan><tspan class="cls-1" x="16.15" y="0">.</tspan><tspan x="20.1" y="0">00%</tspan></text>
      </g>
      <g id="_95_pp" data-name="95%pp" class="cls-46">
        <text class="cls-3" transform="translate(520 830)"><tspan x="0" y="0">000 </tspan><tspan class="cls-33" x="65.28" y="0">P</tspan><tspan class="cls-21" x="83.22" y="0">P</tspan></text>
      </g>
      <g class="cls-46">
        <text class="cls-13" transform="translate(665 800)"><tspan class="cls-17" x="0" y="0">9</tspan><tspan class="cls-86" x="7.97" y="0">7</tspan><tspan class="cls-1" x="14.82" y="0">.</tspan><tspan x="18.77" y="0">00%</tspan></text>
      </g>
      <g id="_97_pp" data-name="97%pp" class="cls-46">
        <text class="cls-3" transform="translate(665 830)"><tspan x="0" y="0">000 </tspan><tspan class="cls-33" x="65.28" y="0">P</tspan><tspan class="cls-21" x="83.22" y="0">P</tspan></text>
      </g>
      <g class="cls-46">
        <text class="cls-13" transform="translate(810 800)"><tspan class="cls-61" x="0" y="0">9</tspan><tspan class="cls-52" x="8.21" y="0">8</tspan><tspan class="cls-50" x="16.45" y="0">.</tspan><tspan x="20.4" y="0">00%</tspan></text>
      </g>
      <g id="_98_pp" data-name="98%pp" class="cls-46">
        <text class="cls-3" transform="translate(810 830)"><tspan x="0" y="0">000 </tspan><tspan class="cls-33" x="65.28" y="0">P</tspan><tspan class="cls-21" x="83.22" y="0">P</tspan></text>
      </g>
      <g class="cls-46">
        <text class="cls-13" transform="translate(955 800)"><tspan x="0" y="0">9</tspan><tspan class="cls-66" x="8.46" y="0">9</tspan><tspan class="cls-1" x="15.85" y="0">.</tspan><tspan x="19.8" y="0">00%</tspan></text>
      </g>
      <g id="_99_pp" data-name="99%pp" class="cls-46">
        <text class="cls-3" transform="translate(955 830)"><tspan x="0" y="0">000 </tspan><tspan class="cls-33" x="65.28" y="0">P</tspan><tspan class="cls-21" x="83.22" y="0">P</tspan></text>
      </g>
      <g class="cls-46">
        <text class="cls-13" transform="translate(1100 800)"><tspan x="0" y="0">10</tspan><tspan class="cls-82" x="15.04" y="0">0.</tspan><tspan x="28.42" y="0">00%</tspan></text>
      </g>
      <g id="_100_pp" data-name="100%pp" class="cls-46">
        <text class="cls-3" transform="translate(1100 830)"><tspan x="0" y="0">000 </tspan><tspan class="cls-67" x="65.28" y="0">P</tspan><tspan class="cls-64" x="83.22" y="0">P</tspan></text>
      </g>
      <text class="cls-8" transform="translate(520 880)"><tspan x="0" y="0">D</tspan><tspan class="cls-45" x="22.2" y="0">E</tspan><tspan class="cls-19" x="39.12" y="0">T</tspan><tspan class="cls-44" x="54.84" y="0">A</tspan><tspan class="cls-52" x="75.48" y="0">I</tspan><tspan class="cls-44" x="83.22" y="0">L</tspan></text>
      <text class="cls-5" transform="translate(520 900)"><tspan class="cls-67" x="0" y="0">A</tspan><tspan x="10.32" y="0">IM</tspan></text>
      <text class="cls-5" transform="translate(810 900)"><tspan x="0" y="0">S</tspan><tspan class="cls-67" x="8.33" y="0">P</tspan><tspan x="17.29" y="0">D</tspan></text>
      <text class="cls-5" transform="translate(1100 900)"><tspan class="cls-27" x="0" y="0">A</tspan><tspan class="cls-81" x="9.66" y="0">C</tspan><tspan x="19.56" y="0">C</tspan></text>
      <text class="cls-7" transform="translate(520 930)"><tspan x="0" y="0">0000</tspan></text>
      <text class="cls-7" transform="translate(810 930)"><tspan x="0" y="0">0000</tspan></text>
      <text class="cls-7" transform="translate(1100 930)"><tspan x="0" y="0">0000</tspan></text>
    </g>
    <g id="Color">
      <g class="cls-62">
        <rect class="cls-20" id="color-0" x="500" y="740" width="880" height="210" rx="30" ry="30"/>
        <rect class="cls-20" id="color-1" x="0" y="990" width="1920" height="90"/>
        <rect class="cls-20" id="color-2" x="20" y="20" width="440" height="950" rx="30" ry="30"/>
        <circle class="cls-20" id="color-3" cx="660" cy="330" r="160"/>
        <rect class="cls-20" id="color-4" x="840" y="170" width="320" height="320" rx="30" ry="30"/>
        <rect class="cls-20" id="color-5" x="840" y="510" width="540" height="210" rx="30" ry="30"/>
        <path class="cls-20" id="color-6" d="M505,560h310c2.76,0,5-2.24,5-5v-15c0-16.57-13.43-30-30-30h-260c-16.57,0-30,13.43-30,30v15c0,2.76,2.24,5,5,5Z"/>
        <rect class="cls-20" id="color-7" x="500" y="563.33" width="320" height="50" rx="5" ry="5"/>
        <rect class="cls-20" id="color-8" x="500" y="616.67" width="320" height="50" rx="5" ry="5"/>
        <path class="cls-20" id="color-9" d="M530,720h260c16.57,0,30-13.43,30-30v-15c0-2.76-2.24-5-5-5h-310c-2.76,0-5,2.24-5,5v15c0,16.57,13.43,30,30,30Z"/>
      </g>
    </g>
  </g>
</svg>