<?xml version="1.0" encoding="utf-8"?>
<svg version="1.1" id="Layer_1" xmlns="http://www.w3.org/2000/svg" xmlns:xlink="http://www.w3.org/1999/xlink" x="0px" y="0px" viewBox="0 0 122.88 120.64" style="enable-background:new 0 0 122.88 120.64" xml:space="preserve">
<path d="M22.552 6.908a.5.5 0 01.896 0l5.02 10.17a.5.5 0 00.376.274l11.224 1.631a.5.5 0 01.277.853l-8.122 7.916a.5.5 0 00-.143.443l1.917 11.178a.5.5 0 01-.726.527l-10.038-5.278a.5.5 0 00-.466 0L12.73 39.9a.5.5 0 01-.726-.527l1.918-11.178a.5.5 0 00-.144-.443l-8.122-7.916a.5.5 0 01.278-.853l11.223-1.63a.5.5 0 00.376-.274l5.02-10.17z" fill="#1c1719" /></svg>